HIERARCHY
ROOT Hips
{
	OFFSET 0.000000 0.000000 0.000000
	CHANNELS 6 Xposition Yposition Zposition Zrotation Yrotation Xrotation 
	JOINT LHipJoint
	{
		OFFSET 0.000000 0.000000 0.000000
		CHANNELS 3 Zrotation Yrotation Xrotation
		JOINT LeftUpLeg
		{
			OFFSET 1.363060 -1.794630 0.839290
			CHANNELS 3 Zrotation Yrotation Xrotation
			JOINT LeftLeg
			{
				OFFSET 2.448110 -6.726130 0.000000
				CHANNELS 3 Zrotation Yrotation Xrotation
				JOINT LeftFoot
				{
					OFFSET 2.562200 -7.039590 0.000000
					CHANNELS 3 Zrotation Yrotation Xrotation
					JOINT LeftToeBase
					{
						OFFSET 0.157640 -0.433110 2.322550
						CHANNELS 3 Zrotation Yrotation Xrotation
						End Site
						{
							OFFSET 0.000000 0.000000 0.000000
						}
					}
				}
			}
		}
	}
	JOINT RHipJoint
	{
		OFFSET 0.000000 0.000000 0.000000
		CHANNELS 3 Zrotation Yrotation Xrotation
		JOINT RightUpLeg
		{
			OFFSET -1.305520 -1.794630 0.839290
			CHANNELS 3 Zrotation Yrotation Xrotation
			JOINT RightLeg
			{
				OFFSET -2.542530 -6.985550 0.000000
				CHANNELS 3 Zrotation Yrotation Xrotation
				JOINT RightFoot
				{
					OFFSET -2.568260 -7.056230 0.000000
					CHANNELS 3 Zrotation Yrotation Xrotation
					JOINT RightToeBase
					{
						OFFSET -0.164730 -0.452590 2.363150
						CHANNELS 3 Zrotation Yrotation Xrotation
						End Site
						{
							OFFSET 0.000000 0.000000 0.000000
						}
					}
				}
			}
		}
	}
	JOINT LowerBack
	{
		OFFSET 0.000000 0.000000 0.000000
		CHANNELS 3 Zrotation Yrotation Xrotation
		JOINT Spine
		{
			OFFSET 0.028270 2.035590 -0.193380
			CHANNELS 3 Zrotation Yrotation Xrotation
			JOINT Spine1
			{
				OFFSET 0.056720 2.048850 -0.042750
				CHANNELS 3 Zrotation Yrotation Xrotation
				JOINT Neck
				{
					OFFSET 0.000000 0.000000 0.000000
					CHANNELS 3 Zrotation Yrotation Xrotation
					JOINT Neck1
					{
						OFFSET -0.054170 1.746240 0.172020
						CHANNELS 3 Zrotation Yrotation Xrotation
						JOINT Head
						{
							OFFSET 0.104070 1.761360 -0.123970
							CHANNELS 3 Zrotation Yrotation Xrotation
							End Site
							{
								OFFSET 0.000000 0.000000 0.000000
							}
						}
					}
				}
				JOINT LeftShoulder
				{
					OFFSET 0.000000 0.000000 0.000000
					CHANNELS 3 Zrotation Yrotation Xrotation
					JOINT LeftArm
					{
						OFFSET 3.362410 1.200890 -0.311210
						CHANNELS 3 Zrotation Yrotation Xrotation
						JOINT LeftForeArm
						{
							OFFSET 4.983000 -0.000000 -0.000000
							CHANNELS 3 Zrotation Yrotation Xrotation
							JOINT LeftHand
							{
								OFFSET 3.483560 -0.000000 -0.000000
								CHANNELS 3 Zrotation Yrotation Xrotation
								JOINT LeftFingerBase
								{
									OFFSET 0.000000 0.000000 0.000000
									CHANNELS 3 Zrotation Yrotation Xrotation
									JOINT LeftHandIndex1
									{
										OFFSET 0.715260 -0.000000 -0.000000
										CHANNELS 3 Zrotation Yrotation Xrotation
										End Site
										{
											OFFSET 0.000000 0.000000 0.000000
										}
									}
								}
								JOINT LThumb
								{
									OFFSET 0.000000 0.000000 0.000000
									CHANNELS 3 Zrotation Yrotation Xrotation
									End Site
									{
										OFFSET 0.000000 0.000000 0.000000
									}
								}
							}
						}
					}
				}
				JOINT RightShoulder
				{
					OFFSET 0.000000 0.000000 0.000000
					CHANNELS 3 Zrotation Yrotation Xrotation
					JOINT RightArm
					{
						OFFSET -3.136600 1.374050 -0.404650
						CHANNELS 3 Zrotation Yrotation Xrotation
						JOINT RightForeArm
						{
							OFFSET -5.241900 -0.000000 -0.000000
							CHANNELS 3 Zrotation Yrotation Xrotation
							JOINT RightHand
							{
								OFFSET -3.444170 -0.000000 -0.000000
								CHANNELS 3 Zrotation Yrotation Xrotation
								JOINT RightFingerBase
								{
									OFFSET 0.000000 0.000000 0.000000
									CHANNELS 3 Zrotation Yrotation Xrotation
									JOINT RightHandIndex1
									{
										OFFSET -0.622530 -0.000000 -0.000000
										CHANNELS 3 Zrotation Yrotation Xrotation
										End Site
										{
											OFFSET 0.000000 0.000000 0.000000
										}
									}
								}
								JOINT RThumb
								{
									OFFSET 0.000000 0.000000 0.000000
									CHANNELS 3 Zrotation Yrotation Xrotation
									End Site
									{
										OFFSET 0.000000 0.000000 0.000000
									}
								}
							}
						}
					}
				}
			}
		}
	}
}
MOTION
Frames: 5
Frame Time: 0.008333
9.563225 17.554892 -22.992348 -4.002952 -0.860894 1.979481 -4.886390 -2.593489 0.254865 -9.093533 0.001907 -9.384358 1.379339 10.324454 27.497561 1.117002 -7.277035 -10.011797 0.019300 0.897000 2.465300 4.145313 2.674619 -0.676936 22.969294 -0.951650 -8.021865 -1.371401 -10.045289 26.126517 -1.063469 3.602774 -9.945246 -0.543400 -4.722800 13.119700 1.751270 -1.275236 2.498196 1.998931 -1.560028 -3.355943 4.772530 -0.696805 -0.661739 -14.329907 -11.373977 -5.572222 4.734818 -14.345922 10.688030 3.576300 -7.660800 8.476700 -0.279202 -1.067934 0.695102 -91.373998 3.272990 30.148845 14.222083 -24.929425 -3.208114 0.222297 0.510333 1.763869 22.048788 18.763221 7.148800 -7.125000 0.000000 0.000000 -6.164000 49.420700 -0.674200 1.607313 1.210734 0.006954 84.832057 -1.894099 20.447386 -12.698394 20.662602 -2.614152 0.392144 -0.151338 -8.699150 -20.180458 10.513745 -3.984600 7.125000 0.000000 0.000000 4.602000 -18.580500 2.905100 
9.558675 17.555398 -22.989618 -4.167439 -0.904937 1.986227 -4.880740 -2.586998 0.263662 -8.902553 -0.013856 -9.360890 1.379297 10.315030 27.480032 1.114730 -7.248343 -9.978643 0.026900 1.058900 2.911000 4.142545 2.670697 -0.672736 23.157905 -1.031079 -8.093270 -1.377456 -10.055500 26.157405 -1.077152 3.683570 -9.993942 -0.509700 -4.576200 12.703800 1.961471 -1.188596 2.551686 2.001644 -1.441031 -3.392823 4.678681 -0.638309 -0.767811 -14.147970 -11.207359 -5.712461 4.631361 -14.131877 11.009860 3.505800 -7.560500 8.613800 -0.283168 -1.079938 0.681072 -91.233016 3.496064 30.561011 14.385914 -25.150488 -3.275613 0.214026 0.533876 1.392250 22.381679 20.347585 7.861500 -7.125000 0.000000 0.000000 -6.264900 51.115000 -0.946900 1.618136 1.212376 -0.013237 84.929695 -2.065931 20.094000 -12.542545 20.440267 -2.556375 0.396450 -0.156762 -8.429280 -20.287807 10.479310 -3.997100 7.125000 0.000000 0.000000 4.522300 -18.603500 2.852200 
9.548967 17.558836 -22.982944 -3.967625 -0.765301 2.042261 -4.891711 -2.590367 0.264137 -9.079567 -0.104007 -9.374244 1.365061 10.296371 27.420050 1.113879 -7.252126 -9.985456 0.017800 0.861000 2.366500 4.148979 2.673945 -0.664293 22.961518 -1.119130 -8.239839 -1.393276 -10.083610 26.252779 -1.078523 3.647331 -10.092597 -0.485900 -4.469600 12.401700 1.687864 -1.214649 2.487008 1.991438 -1.481828 -3.443167 4.772211 -0.658553 -0.826447 -13.960137 -10.969546 -5.871111 4.464265 -13.818813 11.350675 3.407300 -7.416800 8.734300 -0.284399 -1.089150 0.664222 -91.090868 3.764435 30.750663 14.564733 -25.397807 -3.347393 0.198718 0.550293 1.205447 22.105515 21.533790 8.192900 -7.125000 0.000000 0.000000 -6.885500 52.292300 -1.240800 1.630390 1.205259 -0.038311 84.964865 -2.266957 19.929197 -12.390273 20.221096 -2.498924 0.396986 -0.157646 -8.285529 -20.195370 10.412994 -3.953500 7.125000 0.000000 0.000000 4.585500 -18.681000 2.884500 
9.538047 17.554589 -22.978394 -3.762644 -0.562534 2.038530 -4.902581 -2.592885 0.268443 -9.245230 -0.096991 -9.378460 1.359078 10.286020 27.382627 1.122738 -7.425497 -9.946424 0.013600 0.752600 2.068300 4.148783 2.675076 -0.658333 22.789667 -1.146471 -8.243097 -1.402969 -10.103992 26.318916 -1.062751 3.492388 -10.195999 -0.479700 -4.441600 12.322600 1.380654 -1.329190 2.508279 2.021119 -1.638582 -3.480218 5.006030 -0.736243 -0.858509 -13.982116 -10.711268 -6.194414 4.364643 -13.430783 11.736238 3.372200 -7.246000 8.937900 -0.278138 -1.100659 0.644999 -91.159150 3.843669 30.533800 14.595692 -25.433956 -3.353971 0.206661 0.527262 1.203593 22.009862 19.676114 7.473600 -7.125000 0.000000 0.000000 -6.435800 50.357400 -0.852900 1.644456 1.205198 -0.059806 84.822129 -2.339308 20.012900 -12.242421 20.004956 -2.442517 0.398014 -0.152857 -8.230216 -20.052665 10.161880 -3.830900 7.125000 0.000000 0.000000 4.680300 -18.962600 2.915100 
9.529654 17.548724 -22.975765 -3.650443 -0.534507 2.031087 -4.908390 -2.593262 0.274952 -9.333635 -0.046054 -9.360208 1.353274 10.275629 27.345472 1.126937 -7.510950 -9.926835 0.015800 0.812800 2.233900 4.147482 2.674044 -0.657609 22.708025 -1.092000 -8.214107 -1.409552 -10.118666 26.365549 -1.052337 3.410394 -10.220744 -0.478800 -4.437300 12.310200 1.248045 -1.340957 2.521089 2.037647 -1.656816 -3.493317 5.140625 -0.748237 -0.816563 -14.047186 -10.510008 -6.685618 4.315022 -13.096012 12.188521 3.357900 -7.097900 9.237900 -0.278270 -1.109510 0.624499 -91.257046 3.723633 30.400882 14.647699 -25.505721 -3.377142 0.193397 0.544259 1.414799 21.580952 20.858218 7.741600 -7.125000 0.000000 0.000000 -7.189900 51.503000 -1.156600 1.651664 1.209083 -0.079369 84.728989 -2.350956 19.948925 -12.147160 19.859280 -2.405388 0.408880 -0.141086 -8.095268 -20.240068 9.571415 -3.649800 7.125000 0.000000 0.000000 4.527500 -19.585100 2.756400 
